<?xml version="1.0" encoding="UTF-8" standalone="no"?>
<svg
   xmlns:dc="http://purl.org/dc/elements/1.1/"
   xmlns:cc="http://creativecommons.org/ns#"
   xmlns:rdf="http://www.w3.org/1999/02/22-rdf-syntax-ns#"
   xmlns:svg="http://www.w3.org/2000/svg"
   xmlns="http://www.w3.org/2000/svg"
   xmlns:sodipodi="http://sodipodi.sourceforge.net/DTD/sodipodi-0.dtd"
   xmlns:inkscape="http://www.inkscape.org/namespaces/inkscape"
   width="571"
   height="571"
   viewBox="0 0 151.043 151.043"
   version="1.1"
   id="svg10"
   sodipodi:docname="rebornos-fire-2.svg"
   inkscape:version="1.0.1 (3bc2e813f5, 2020-09-07, custom)">
  <metadata
     id="metadata16">
    <rdf:RDF>
      <cc:Work
         rdf:about="">
        <dc:format>image/svg+xml</dc:format>
        <dc:type
           rdf:resource="http://purl.org/dc/dcmitype/StillImage" />
        <dc:title></dc:title>
      </cc:Work>
    </rdf:RDF>
  </metadata>
  <defs
     id="defs14">
    <linearGradient
       id="linearGradient5189"
       y2="-308.01"
       gradientUnits="userSpaceOnUse"
       x2="-514.07"
       gradientTransform="matrix(0.36157,0,0,0.35266,408.93,279.07)"
       y1="-613.01"
       x1="-464.49"
       inkscape:collect="always">
      <stop
         id="stop5183"
         style="stop-color:#ffffff"
         offset="0" />
      <stop
         id="stop5185"
         style="stop-color:#ffffff;stop-opacity:0"
         offset="1" />
    </linearGradient>
    <radialGradient
       id="radialGradient5165"
       gradientUnits="userSpaceOnUse"
       cy="151.44"
       cx="-571.43"
       gradientTransform="matrix(-0.65382,-0.38117,0.44202,-0.55853,-243.34,198.59)"
       r="186.49"
       inkscape:collect="always">
      <stop
         id="stop5159"
         style="stop-color:#dc0000"
         offset="0" />
      <stop
         id="stop5161"
         style="stop-color:#ff9900"
         offset="1" />
    </radialGradient>
    <radialGradient
       id="radialGradient5175"
       gradientUnits="userSpaceOnUse"
       cy="-102.23"
       cx="-302.86"
       gradientTransform="matrix(-0.52617,-0.32169,0.42663,-0.51405,189.59,92.988)"
       r="319.17"
       inkscape:collect="always">
      <stop
         id="stop5171"
         style="stop-color:#dc0000"
         offset="0" />
      <stop
         id="stop5173"
         style="stop-color:#ff9900"
         offset="1" />
    </radialGradient>
    <filter
       id="filter5097"
       width="1.579"
       y="-.14643"
       x="-.28949"
       height="1.2929"
       color-interpolation-filters="sRGB"
       inkscape:collect="always">
      <feGaussianBlur
         id="feGaussianBlur5099"
         stdDeviation="43.927963"
         inkscape:collect="always" />
    </filter>
    <filter
       id="filter5101"
       width="1.3349"
       y="-.091110"
       x="-.16746"
       height="1.1822"
       color-interpolation-filters="sRGB"
       inkscape:collect="always">
      <feGaussianBlur
         id="feGaussianBlur5103"
         stdDeviation="43.927963"
         inkscape:collect="always" />
    </filter>
  </defs>
  <sodipodi:namedview
     pagecolor="#ffffff"
     bordercolor="#666666"
     borderopacity="1"
     objecttolerance="10"
     gridtolerance="10"
     guidetolerance="10"
     inkscape:pageopacity="0"
     inkscape:pageshadow="2"
     inkscape:window-width="1920"
     inkscape:window-height="1011"
     id="namedview12"
     showgrid="false"
     inkscape:zoom="1.4903678"
     inkscape:cx="285.5"
     inkscape:cy="366.01704"
     inkscape:window-x="0"
     inkscape:window-y="0"
     inkscape:window-maximized="1"
     inkscape:current-layer="svg10" />
  <path
     d="M113.28 140.924H37.76L.001 75.52l37.76-65.4h75.52l37.76 65.402z"
     fill="#00222b"
     stroke="#aef"
     stroke-opacity="0"
     id="path2" />
  <path
     d="M40.688 15.2L24.914 42.5l15.588 9L51.08 33.188h21.147v-18zm38.127 0v18h21.147l10.578 18.3 15.588-9-15.774-27.32zm50.608 33.027l-15.588 9 10.57 18.305-10.578 18.322 15.588 9 15.774-27.32zm-107.804 0L5.855 75.522l15.774 27.32 15.587-9L26.638 75.52l10.57-18.305zM40.5 99.55l-15.588 9 15.765 27.305h31.538v-18H51.08zm70.02 0l-10.57 18.305H78.816v18h31.54l15.764-27.305z"
     fill="#006680"
     id="path4" />
  <path
     d="M54.256 38.688l-9 15.57 13.457 7.77 4.505-7.802h9v-15.54zm24.56 0v15.54h9l4.505 7.802 13.457-7.77-9-15.57zM41.97 59.966L33 75.52l9 15.57 13.457-7.77-4.505-7.802 4.495-7.785zm67.1 0l-13.457 7.77 4.495 7.785-4.505 7.802 13.457 7.77 9-15.57zM58.732 89.03L45.275 96.8l8.98 15.556h17.97v-15.54h-9zm33.578 0l-4.495 7.785h-9v15.54h17.97l8.98-15.556z"
     fill="#08a"
     id="path6" />
  <path
     d="M84.45 90.986H66.592l-8.93-15.465 8.93-15.465H84.45l8.93 15.465z"
     fill="#00aad4"
     id="path8" />
  <g
     id="layer1"
     inkscape:label="Layer 1"
     transform="matrix(0.21123105,0,0,0.22303157,62.493855,42.272856)">
    <path
       id="path4550"
       style="fill:#ff6600;stroke:#000000;stroke-width:1px;filter:url(#filter5101)"
       d="m -385.56,460.93 c 0,0 337.05,-223.94 320,-414.29 -12.88,-143.77 -161.07,-286.23 -262.86,-388.57 -102.3,-102.86 -54.286,-394.29 -54.286,-394.29 0,0 -301.02,246.9 -311.43,405.71 -11.823,180.43 276.01,278.42 328.57,451.43 33.525,110.36 -20,340 -20,340 z"
       sodipodi:nodetypes="csscssc"
       inkscape:connector-curvature="0"
       transform="matrix(0.40259,0,0,0.34554,427.26,272.26)" />
    <path
       id="path4552"
       style="fill:#dc0000;stroke:#000000;stroke-width:1px;filter:url(#filter5097)"
       d="m -465.56,495.22 c 0,0 -289.01,-187.93 -325.71,-288.57 -53.925,-147.85 54.286,-431.43 54.286,-431.43 0,0 259.02,265.82 288.57,420 20.872,108.89 -17.143,300 -17.143,300 z"
       sodipodi:nodetypes="cscsc"
       inkscape:connector-curvature="0"
       transform="matrix(0.40259,0,0,0.34554,427.26,272.26)" />
    <path
       id="path4585"
       d="m 278.93,429.56 c 0,0 135.7,-77.381 128.83,-143.15 C 402.5745,236.733 342.914,187.505 301.94,152.14 260.753,116.597 270.883,17.87 270.883,17.87 c 0,0 -105.09,61.622 -116.18,138.22 -8.9779,62.002 111.12,96.206 132.28,155.99 13.497,38.133 -8.0518,117.48 -8.0518,117.48 z"
       sodipodi:nodetypes="csscssc"
       style="fill:url(#radialGradient5175);stroke:#f67124;stroke-width:3.2802"
       inkscape:connector-curvature="0" />
    <path
       id="path4587"
       d="m 246.73,441.41 c 0,0 -116.35,-64.937 -131.13,-99.714 -21.71,-51.088 21.855,-149.08 21.855,-149.08 0,0 104.28,91.851 116.18,145.13 8.403,37.627 -6.9016,103.66 -6.9016,103.66 z"
       sodipodi:nodetypes="cscsc"
       style="fill:url(#radialGradient5165);stroke:#f6500d;stroke-width:3.2802"
       inkscape:connector-curvature="0" />
    <path
       id="path5177"
       sodipodi:nodetypes="csscssc"
       style="opacity:0.53171;fill:url(#linearGradient5189);stroke-width:0"
       inkscape:connector-curvature="0"
       d="m 275.78,434.35 c 0,0 118.73,-76.943 112.73,-142.34 -4.54,-49.4 -71.03,-94.67 -105.41,-133.51 -39.84,-45 -18.84,-134.32 -18.84,-134.32 0,0 -102.57,94.88 -98.226,137.92 4.1453,41.073 105.18,95.984 116.79,115.94 20.435,35.111 -7.0454,156.31 -7.0454,156.31 z" />
  </g>
</svg>
